<svg xmlns="http://www.w3.org/2000/svg" width="128" height="64" viewBox="0 0 128 64">
  <g fill="none" fill-rule="evenodd">
    <polygon stroke="#E692F7" stroke-width="4" points="9 21 119 21 107.068 32.103 119 44 9 44 20.994 32.103"/>
    <circle cx="64" cy="32" r="29" fill="#A8C6FA"/>
    <polygon fill="#FFF" fill-rule="nonzero" points="71.98 26.406 66.341 26.406 63.208 40.5 59.883 40.5 63.015 26.406 57.98 26.406 52.341 26.406 49.208 40.5 45.883 40.5 49.015 26.406 43.377 26.406 44.02 23.5 58.623 23.5 72.623 23.5 85.623 23.5 84.98 26.406 79.341 26.406 76.208 40.5 72.883 40.5 76.015 26.406"/>
    <polygon fill="#FFF" fill-rule="nonzero" points="77.262 25.406 74.129 39.5 75.406 39.5 78.539 25.406 84.177 25.406 84.377 24.5 72.402 24.5 72.201 25.406"/>
    <polygon fill="#FFF" fill-rule="nonzero" points="70.799 24.5 58.823 24.5 58.623 25.406 64.262 25.406 61.129 39.5 62.406 39.5 65.539 25.406 70.598 25.406"/>
    <polygon fill="#FFF" fill-rule="nonzero" points="44.823 24.5 44.623 25.406 50.262 25.406 47.129 39.5 48.406 39.5 51.539 25.406 57.177 25.406 57.377 24.5"/>
  </g>
</svg>
